<svg width="360" height="157" viewBox="0 0 360 157" fill="none" xmlns="http://www.w3.org/2000/svg">
<path d="M227.089 126.556C226.989 130.419 223.55 132.014 216.597 132.014C213.083 132.014 210.989 131.192 210.989 128.326C210.989 125.983 212.659 124.463 217.594 124.463H227.089V126.556ZM201.918 101.834L201.843 111.554L202.092 111.728C205.606 110.881 210.64 109.959 215.6 109.959C223.475 109.959 226.166 111.13 226.914 115.915H214.503C203.513 115.915 198.653 120.625 198.653 128.326C198.653 137.297 203.613 141.908 213.158 141.908C220.285 141.908 224.646 140.163 226.839 137.297H227.089L227.487 141.16H239.649V120.7C239.649 103.753 233.119 99.9153 217.095 99.9153C211.986 99.9153 205.282 100.837 201.918 101.834Z" fill="#5CC6D0"/>
<path d="M265.916 130.519C260.035 130.519 258.614 127.403 258.614 120.874C258.614 113.821 260.957 111.304 267.162 111.304C269.181 111.304 271.598 111.479 273.542 111.728V121.447C273.542 128.002 270.352 130.519 265.916 130.519ZM261.555 141.908C267.412 141.908 271.773 139.74 273.293 135.204H273.542V156.761H286.95V101.087L286.701 100.912C280.844 100.314 274.963 99.9153 266.664 99.9153C251.063 99.9153 245.531 107.79 245.531 122.868C245.531 135.627 251.562 141.908 261.555 141.908Z" fill="#5CC6D0"/>
<path d="M323.26 136.55L323.933 141.16H336.692V100.314H323.26V123.541C323.185 128.002 321.665 129.671 316.481 129.671C310.949 129.671 309.678 127.827 309.678 122.793L309.603 100.314H296.17V126.058C296.17 136.201 300.108 141.908 310.425 141.908C316.805 141.908 321.49 139.814 323.011 136.55H323.26Z" fill="#5CC6D0"/>
<path fill-rule="evenodd" clip-rule="evenodd" d="M359.395 100.314H357.177C355.956 101.984 354.685 103.579 353.489 105.124C353.215 105.448 353.041 105.946 352.592 105.872C351.52 104.825 349.527 102.383 348.629 101.186C348.43 100.912 348.206 100.613 347.981 100.314H345.988V141.16H359.395V100.314Z" fill="#5CC6D0"/>
<path d="M121.771 62.6832H121.522C120.351 57.8236 116.563 54.8081 109.859 54.8081C103.155 54.8081 99.7161 57.7488 98.2956 62.6832H98.0463L97.3735 55.2317H84.6138V96.0528H98.0463V74.8448C98.0463 69.387 99.2924 67.0444 104.003 67.0444C108.688 67.0444 109.934 69.387 109.934 74.8448L110.033 96.0528H123.441V74.8448C123.441 69.387 124.712 67.0444 129.397 67.0444C134.107 67.0444 135.354 69.387 135.354 74.8448L135.428 96.0528H148.861V73.1751C148.861 59.6677 143.578 54.8081 135.354 54.8081C127.055 54.8081 123.192 57.6491 121.771 62.6832ZM167.377 71.1564C167.377 67.2189 168.898 64.6271 175.925 64.6271C183.153 64.6271 184.498 67.2189 184.498 71.1564H167.377ZM194.043 94.732V85.4114L193.719 85.1622C189.682 85.7354 186.342 86.0095 180.561 86.0095C171.838 86.0095 168.474 84.913 167.627 79.9537H195.214L195.563 79.6297C195.987 77.2871 196.137 74.6703 196.137 72.577C196.137 61.6864 191.127 54.8081 175.925 54.8081C161.695 54.8081 155.141 61.0135 155.141 75.7669C155.141 92.0405 163.191 96.8254 177.695 96.8254C185.246 96.8254 190.853 95.9033 194.043 94.732ZM189.682 38.4597H177.271L168.723 50.6961H179.464L189.682 39.0329V38.4597ZM241.518 96.0528V39.631H228.086V56.727L227.936 56.8267C225.743 55.6554 222.229 54.8081 217.943 54.8081C205.706 54.8081 200.099 60.7643 200.348 77.7855C200.498 90.5203 205.382 96.8254 216.198 96.8254C222.902 96.8254 225.992 94.6323 227.936 90.0966H228.26L228.759 96.0528H241.518ZM213.432 75.7669C213.432 68.141 215.525 66.2968 220.809 66.2968C223.824 66.2968 225.992 66.7205 228.086 67.5429V76.365C228.086 82.8944 224.995 85.4114 220.559 85.4114C214.678 85.4114 213.432 82.3212 213.432 75.7669ZM264.246 55.2317H250.814V96.0528H264.246V55.2317ZM257.692 39.3818C255.424 39.3818 253.156 39.5313 250.914 40.0547C250.664 42.0484 250.565 43.743 250.565 45.1635C250.565 46.7585 250.664 48.2538 250.914 50.1976C253.156 50.6213 255.275 50.8705 257.443 50.8705C259.636 50.8705 261.879 50.6213 264.246 50.1976C264.396 48.179 264.496 46.6588 264.496 45.0888C264.496 43.6433 264.396 42.0484 264.246 40.0547C261.979 39.5313 259.786 39.3818 257.692 39.3818ZM304.993 83.9909C300.955 84.4893 297.516 84.8133 293.678 84.8133C286.202 84.8133 283.685 83.7417 283.685 76.1905C283.685 69.5615 286.202 67.0444 293.678 67.0444C297.367 67.0444 301.304 67.3933 304.644 68.0662L304.918 67.8918L304.818 56.6523C301.379 55.5557 295.273 54.8081 290.314 54.8081C277.903 54.8081 270.527 59.4933 270.601 76.0161C270.701 92.1152 277.056 96.8254 290.389 96.8254C296.52 96.8254 302.476 96.2273 305.317 95.1307V84.2401L304.993 83.9909Z" fill="#1C2F4B"/>
<path fill-rule="evenodd" clip-rule="evenodd" d="M330.911 96.8252C336.419 96.8252 340.68 96.0277 343.87 94.3081C343.795 93.7598 343.77 93.2614 343.745 92.7879L343.72 92.6633C343.122 91.0434 342.724 89.3986 342.649 87.8286C342.499 84.9377 343.496 82.1465 345.54 80.103C347.209 78.4332 349.502 77.4115 351.87 77.2121C351.87 76.7884 351.87 76.3648 351.87 75.9411C351.87 61.0133 346.163 54.8079 330.911 54.8079C315.734 54.8079 309.952 61.0133 309.952 75.9411C309.952 90.6945 315.734 96.8252 330.911 96.8252ZM322.612 75.6919C322.612 68.8884 324.631 66.1221 330.911 66.1221C337.366 66.1221 339.21 68.8884 339.21 75.6919C339.21 82.8942 337.366 85.3364 330.911 85.3364C324.631 85.3364 322.612 82.8942 322.612 75.6919Z" fill="#1C2F4B"/>
<path d="M67.6423 112.65L69.5862 119.927C70.3587 122.743 70.259 125.385 69.0877 127.603C67.9663 129.721 65.9975 131.316 63.0069 132.114L41.8239 137.796C38.8831 138.568 35.8427 138.095 33.3755 136.649C30.9083 135.229 28.9645 132.861 28.1919 129.921L0.379755 26.1484C-0.417727 23.2077 0.0806992 20.1673 1.50121 17.7001C2.92173 15.2328 5.28925 13.3139 8.25488 12.5164L53.5369 0.379755C56.4776 -0.417727 59.493 0.0806992 61.9852 1.50121C64.4524 2.94665 66.3713 5.31417 67.1688 8.25488L74.4707 35.4689C77.7354 35.8178 80.6014 38.1355 81.4985 41.4999C82.6698 45.8611 80.078 50.3469 75.7168 51.5182C71.3556 52.6646 66.8697 50.0977 65.6984 45.7365C64.8013 42.3721 66.147 38.933 68.7887 37.014L61.4867 9.77508C61.1129 8.37949 60.2158 7.28295 59.0445 6.58516C57.8732 5.91228 56.4526 5.68799 55.0571 6.06181L9.77508 18.1985C8.37949 18.5723 7.25803 19.4695 6.58515 20.6408C5.91228 21.8121 5.68799 23.2326 6.06181 24.6282L33.849 128.4C34.2478 129.796 35.1449 130.917 36.3162 131.565C37.4875 132.263 38.9081 132.488 40.3037 132.114L61.4867 126.432C62.7577 126.083 63.5303 125.559 63.8792 124.887C64.3278 124.064 64.3029 122.868 63.929 121.447L61.9852 114.22C58.9697 114.469 56.0041 113.871 53.2627 112.575C49.699 110.856 46.5838 107.965 44.4655 104.202C44.0169 103.429 44.0418 102.532 44.4157 101.809C40.9267 96.1273 39.1324 91.6166 39.1822 87.9033C39.257 83.9159 41.3005 80.9503 45.5371 78.6575C45.5371 77.3865 46.3845 76.2402 47.6804 75.8913C49.2255 75.4676 50.8204 76.3897 51.2441 77.9348C51.6428 79.4799 50.7207 81.0749 49.1756 81.4985C48.2535 81.7478 47.3065 81.4985 46.6087 80.9503C43.3441 82.7446 41.7491 85.0125 41.6992 87.9282C41.6494 91.1431 43.3191 95.2302 46.534 100.464C47.4561 100.414 48.3532 100.887 48.8267 101.735C50.4466 104.576 52.7892 106.769 55.4309 108.04C57.9479 109.236 60.7391 109.585 63.4555 108.862C66.2716 108.114 68.5644 106.32 70.1344 103.928C71.8042 101.411 72.7013 98.2207 72.5518 94.8314C72.502 93.7598 73.1499 92.8128 74.072 92.4141C74.1966 86.6323 73.5736 82.4705 71.9786 79.8288C70.4833 77.3118 67.9912 76.1405 64.253 76.2152C63.929 77.0626 63.2312 77.7354 62.2842 77.9846C60.7391 78.4083 59.1441 77.4862 58.7454 75.9411C58.3217 74.396 59.2438 72.801 60.789 72.3774C62.0599 72.0285 63.3808 72.6017 64.0287 73.6982C68.8385 73.5736 72.1032 75.1187 74.1468 78.5329C75.9909 81.6481 76.7137 86.3084 76.5641 92.7131C77.1622 93.1617 77.5361 93.8346 77.561 94.6321C77.7603 99.0681 76.5641 103.305 74.3212 106.694C72.6515 109.236 70.3836 111.304 67.6423 112.65ZM73.1499 41.9235C74.0969 41.6494 75.0439 42.2226 75.2931 43.1447C75.5424 44.0917 74.9941 45.0636 74.0471 45.3128C73.125 45.562 72.1531 45.0138 71.9038 44.0668C71.6546 43.1198 72.2029 42.1728 73.1499 41.9235ZM72.5767 39.8052C70.4833 40.3784 69.2373 42.5217 69.7855 44.64C70.3587 46.7333 72.5269 47.9794 74.6203 47.4062C76.7137 46.858 77.9597 44.6898 77.4115 42.5964C76.8383 40.503 74.695 39.232 72.5767 39.8052ZM30.5594 19.4445L37.6869 17.5505C38.5592 17.3013 39.4813 17.8247 39.7055 18.6969C39.9298 19.5691 39.4065 20.4663 38.5342 20.7155L31.4068 22.6345C30.5345 22.8588 29.6373 22.3354 29.3881 21.4632C29.1638 20.5909 29.6872 19.6938 30.5594 19.4445Z" fill="#5CC6D0"/>
<path fill-rule="evenodd" clip-rule="evenodd" d="M347.508 83.2428C346.013 84.7381 345.315 86.7567 345.415 88.8501C345.564 92.1895 347.732 95.8779 349.751 98.5445C350.399 99.3918 351.844 101.161 352.642 101.909C352.941 101.959 353.09 101.61 353.265 101.361C355.757 98.1956 358.748 94.6318 359.719 90.6444C360.068 89.0744 360.143 87.7037 359.645 86.1337C358.922 83.8658 357.078 82.0715 354.71 81.3986C352.243 80.6759 349.352 81.3986 347.508 83.2428ZM352.692 85.8097C354.162 85.8097 355.333 87.0059 355.333 88.4513C355.333 89.8968 354.162 91.093 352.692 91.093C351.246 91.093 350.075 89.8968 350.075 88.4513C350.075 87.0059 351.246 85.8097 352.692 85.8097Z" fill="#5CC6D0"/>
</svg>
