<svg viewBox="0 0 300 165" fill="none" xmlns="http://www.w3.org/2000/svg">
<path
    fill-rule="evenodd"
    clip-rule="evenodd"
    d="M74.6222 72.2738L5.12341 72.2679C2.06399 72.2651 0 73.9359 0 77.1032V143.715C0 147.188 3.17875 148.764 5.49824 150.671C7.06553 151.96 8.41717 153.207 10.5894 153.207H40.2067C41.5145 153.207 42.5647 152.904 43.3504 152.375C43.9965 152.81 45.2627 153.207 46.3286 153.207C48.6875 153.207 57.0967 153.59 58.8988 152.703C59.5147 152.4 60.0794 151.971 60.3927 151.375C61.8675 152.369 62.2835 153.207 64.8601 153.207C67.4411 153.207 74.5664 153.54 76.7791 152.871C77.7268 152.585 77.729 152.687 78.85 152.948C79.4529 153.088 79.7269 153.207 80.4133 153.207C84.4253 153.207 106.774 153.476 108.864 153.032C109.164 152.968 109.239 152.962 109.54 152.871C111.266 152.349 110.989 153.207 113.009 153.207H137C139.408 153.207 138.055 152.307 140.867 152.978C141.441 153.115 141.639 153.207 142.295 153.207H170.589C171.493 153.207 172.902 152.854 173.478 152.452C174.31 151.871 174.762 151.249 175.222 150.376C177.171 151.69 177.229 153.207 180.351 153.207H196.069L196.465 156.64C196.836 158.133 197.28 158.796 198.17 159.919C198.192 159.946 198.222 159.985 198.244 160.011L198.563 160.356C198.643 160.431 198.91 160.645 199.02 160.729C199.668 161.22 200.244 161.655 200.963 162.104C202.922 163.324 209.177 164.531 211.623 164.531H211.892H212.775C217.535 164.529 218.226 164.476 223.66 163.324C226.917 162.634 227.122 161.966 229.492 160.368C231.166 161.496 231.2 162.101 233.628 162.701C239.888 164.246 247.255 163.48 253.086 161.133C256.369 159.812 259.275 156.987 259.275 153.207C261.333 153.207 263.678 153.49 265.667 152.979C267.246 152.575 266.524 152.425 268.34 152.91C268.845 153.045 269.313 153.207 270.03 153.207H286.41C289.331 153.207 291.209 151.318 291.209 148.378V98.9186C293.538 98.9186 296.793 99.3239 298.454 97.551C299.186 96.7689 299.812 95.3848 299.812 93.9227V82.2656C299.812 78.6338 296.694 76.9745 294.639 74.9833C293.201 73.5909 292.161 72.2738 289.719 72.2738H216.586C216.586 65.5758 216.004 60.1583 214.568 54.3216L213.147 49.2569C212.414 46.5579 211.106 44.0335 210.155 41.4447C209.683 40.1615 207.947 37.062 207.163 35.7958C206.907 35.3816 206.639 34.8826 206.386 34.4132C206.04 33.7715 205.904 33.6745 205.552 33.0881C204.49 31.3201 203.229 29.6364 202.003 28.0004L199.47 24.8879C198.065 23.2066 195.363 20.2328 193.778 18.9596L192.127 17.4571C189.805 15.3276 186.838 12.9955 184.105 11.3759C182.755 10.5763 181.485 9.62054 180.064 8.94807L172.795 5.43962C168.889 3.58644 163.827 2.17983 159.598 1.40316C152.188 0.042301 150.536 0 142.957 0C137.348 0 132.336 1.19156 127.667 2.26349C123.642 3.18765 117.046 5.55864 113.371 7.69225L111.324 8.79548C108.718 10.1302 106.143 11.7617 103.788 13.5346L98.9155 17.4562C98.4944 17.8262 98.2394 18.1341 97.8312 18.5298L94.436 21.7737C93.6491 22.5644 93.1467 23.2448 92.3667 24.0209C89.5656 26.808 85.0297 33.2178 83.2479 36.9915C82.7816 37.9792 82.1816 38.7896 81.7614 39.8251C81.4777 40.5241 81.2815 40.6065 81.0295 41.2534L77.4122 50.9351C76.46 53.76 75.8412 56.85 75.3291 59.8295C75.0922 61.2083 74.9273 62.2846 74.7121 63.7048C74.5824 64.5613 74.4409 71.8935 74.6222 72.2738V72.2738Z"
    fill="#EBEDED"
  />
<path
    fill-rule="evenodd"
    clip-rule="evenodd"
    d="M79.0649 76.7452L4.46742 76.7726L4.46986 143.715C4.46986 144.393 6.9032 146.029 7.3993 146.425C8.15798 147.03 9.83803 148.709 10.7549 148.709L40.8465 148.693L40.7372 144.046C41.6801 144.133 41.7628 144.515 42.3236 145.081L44.8923 147.659C45.3827 148.15 45.63 148.709 46.4942 148.709L56.9254 148.702V144.063C60.3808 143.951 59.4465 143.91 63.2277 147.69C63.7664 148.229 63.9166 148.709 64.8601 148.709L75.2559 148.688L75.2616 144.083C76.5525 144.793 79.2048 148.709 80.5788 148.709C89.1135 148.709 99.7907 148.891 108.064 148.692L108.062 144.188C109.139 144.84 111.159 147.424 112.313 148.407C112.999 148.991 115.008 148.709 116.153 148.709C123.025 148.709 130.645 148.897 137.319 148.695L137.325 144.216C139.091 145.421 141.171 148.709 142.461 148.709L171.051 148.685L171.051 144.046C176.506 144.046 174.724 143.745 176.972 145.618C180.253 148.352 178.616 148.734 181.508 148.71C187.414 148.662 195.167 148.51 200.704 148.727C200.48 149.922 200.457 153.215 200.573 154.519C201.205 161.65 219.352 160.46 224.028 158.538C227.911 156.942 227.504 155.006 227.504 150.475L231.393 151.267C231.99 154.998 231.245 157.149 234.802 158.358C239.114 159.823 248.235 158.688 252.349 156.393C255.586 154.588 254.734 152.729 254.381 148.709H264.596L264.818 144.13C265.481 144.175 266.844 145.857 267.365 146.397C268.287 147.354 269.301 148.709 270.195 148.709H286.731L286.785 94.3134L295.345 94.3149L295.343 82.2657C295.343 81.4467 290.141 76.8557 289.713 76.7836L223.205 76.7726C219.626 76.7726 215.489 76.9649 211.978 76.7452C212.912 64.9158 210.667 52.6642 205.389 42.0807C203.707 38.7069 201.501 34.8126 199.254 31.9348C195.142 26.669 192.705 23.8841 187.311 19.3047C183.847 16.3634 179.003 13.4663 174.967 11.416C169.202 8.48678 159.59 5.29649 153.044 4.89581C143.047 4.28381 137.634 4.08316 127.274 7.01998C122.731 8.30771 119.112 9.95283 115.211 11.8803C111.367 13.78 110.768 14.4743 107.434 16.5343C104.969 18.0573 102.453 20.5471 100.432 22.3179C99.5979 23.0489 99.0693 23.5931 98.3194 24.3503C88.472 34.2948 82.0918 46.6525 79.7225 60.7556C78.8493 65.954 79.0649 71.148 79.0649 76.7452V76.7452Z"
    fill="#10161E"
  />
<path
    fill-rule="evenodd"
    clip-rule="evenodd"
    d="M175.081 143.685C177.87 143.69 203.022 143.949 204.584 143.461C208.003 142.393 209.806 142.39 213.46 142.192C213.46 136.316 213.46 130.44 213.46 124.564C213.46 118.725 213.314 112.698 213.526 106.967L207.109 106.987L207.046 79.4356L175.015 79.4617C174.702 84.4098 174.987 90.3621 174.987 95.4215C174.987 99.0272 174.77 142.27 175.081 143.685V143.685Z"
    fill="#F9C626"
  />
<path
    fill-rule="evenodd"
    clip-rule="evenodd"
    d="M136.89 143.709L165.808 143.755L165.811 79.6532L136.898 79.603L136.89 143.709Z"
    fill="#EBEDED"
  />
<path
    fill-rule="evenodd"
    clip-rule="evenodd"
    d="M40.9291 143.759L51.6675 143.763C51.8728 137.494 51.6772 130.87 51.6772 124.564C51.6772 119.433 50.7881 121.001 54.3515 117.486C55.3725 116.479 58.3061 113.25 59.232 112.707L59.2632 143.738L70.0099 143.762L70.0097 79.6602L40.936 79.603L40.9291 143.759V143.759Z"
    fill="#EBEDED"
  />
<path
    fill-rule="evenodd"
    clip-rule="evenodd"
    d="M147.62 46.9614C148.363 47.7968 164.818 59.5385 166.543 60.8551C167.169 61.3329 167.658 61.7059 168.292 62.1147C169.089 62.6279 169.605 62.2997 170.518 62.0332C172.147 61.5578 185.615 57.3199 186.402 56.8959C187.174 56.4799 189.296 48.9248 189.562 48.0799L193.872 34.4159C194.515 32.2567 194.776 33.0489 192.501 30.4008C189.231 26.5946 185.59 23.3607 181.598 20.3854C179.684 18.9584 169.303 12.8876 168.025 13.2222C167.349 13.3994 165.09 15.0843 164.271 15.6189L148.737 26.9737C147.885 27.5987 147.593 27.3675 147.612 28.7989L147.62 46.9614V46.9614Z"
    fill="#EBEDED"
  />
<path
    fill-rule="evenodd"
    clip-rule="evenodd"
    d="M143.425 47.1118L143.425 29.1392C143.447 27.2107 143.916 28.2005 140.81 25.7993C140.152 25.291 139.677 25.0603 139.061 24.5706C138.47 24.1013 137.973 23.7081 137.381 23.2659C136.781 22.8177 136.296 22.5463 135.64 22.0193L125.148 14.4272C123.09 12.9727 123.447 12.7795 121.12 13.8244C112.018 17.911 105.285 22.799 98.6505 30.344C96.5645 32.7165 96.5078 32.0349 97.1943 34.0617L101.598 47.6209C105.131 58.2432 103.378 56.2519 106.629 57.5464C108.389 58.247 111.553 59.1241 113.518 59.7772C114.681 60.1639 121.957 62.594 122.638 62.316L134.701 53.4723C135.293 52.9991 135.83 52.6124 136.427 52.2121C138.398 50.8912 141.187 48.5559 143.425 47.1118V47.1118Z"
    fill="#EBEDED"
  />
<path
    fill-rule="evenodd"
    clip-rule="evenodd"
    d="M75.0088 143.688L102.758 143.733L102.778 79.6017L92.0142 79.6043L92.0183 133.864L85.7995 133.867L85.7844 79.6017L75.02 79.6075L75.0088 143.688Z"
    fill="#EBEDED"
  />
<path
    fill-rule="evenodd"
    clip-rule="evenodd"
    d="M7.34132 143.634C9.08207 143.968 15.8492 143.783 18.0756 143.776L18.079 122.566L36.1128 108.981C36.0751 106.259 36.3007 81.3571 36.0084 79.6633L7.34372 79.6029L7.34132 143.634V143.634Z"
    fill="#EBEDED"
  />
<path
    fill-rule="evenodd"
    clip-rule="evenodd"
    d="M216.528 142.236C219.435 142.331 221.241 142.867 223.878 143.549C224.018 141.445 223.594 139.6 226.931 138.469C231.234 137.01 237.418 137.091 241.743 138.377C245.828 139.591 244.682 142.021 245.101 143.307L248.755 143.432L248.749 134.476L229.518 134.418L229.505 116.272L242.362 116.25L242.355 107.078C241.772 106.918 242.455 106.863 240.912 106.883L235.945 106.887C233.812 106.9 231.648 107.074 229.51 106.928L229.506 88.8228L248.746 88.8099L248.76 79.6011C248.575 79.5147 248.759 79.5453 248.341 79.4832L216.549 79.463L216.528 142.236Z"
    fill="#F9C626"
  />
<path
    fill-rule="evenodd"
    clip-rule="evenodd"
    d="M251.806 88.7546L264.594 88.7691L264.632 143.609L277.55 143.655L277.566 88.7573L290.394 88.7686L290.417 79.4304L251.838 79.4684L251.806 88.7546Z"
    fill="#F9C626"
  />
<path
    fill-rule="evenodd"
    clip-rule="evenodd"
    d="M107.691 143.752L132.048 143.752L132.057 132.916C130.189 132.916 119.45 133.069 118.526 132.827L118.492 79.6017L107.711 79.6026L107.691 143.752V143.752Z"
    fill="#EBEDED"
  />
<path
    fill-rule="evenodd"
    clip-rule="evenodd"
    d="M167.176 76.708L207.64 76.7618L207.645 75.566L193.757 65.4322C193.214 64.9998 192.895 64.9116 192.364 64.5124C191.445 63.8217 190.721 63.3401 189.861 62.7097C186.735 60.4172 187.927 61.2313 180.279 63.5217C179.464 63.7658 170.768 66.5277 170.463 66.8189C170.194 67.0748 167.328 75.8522 167.176 76.708V76.708Z"
    fill="#EBEDED"
  />
<path
    fill-rule="evenodd"
    clip-rule="evenodd"
    d="M83.4028 76.7589L123.956 76.7548C123.295 74.4553 122.516 72.3244 121.805 70.0997C120.548 66.1672 121.262 66.8787 117.314 65.6025C115.111 64.8907 112.754 64.047 110.573 63.3907C109.379 63.0317 104.441 61.2772 103.739 61.2851C102.956 61.2939 94.8165 67.4164 93.1586 68.6152L87.9756 72.3905C87.0615 73.0926 86.2528 73.5785 85.3832 74.2797C83.2322 76.0142 83.4015 75.1769 83.4028 76.7589V76.7589Z"
    fill="#EBEDED"
  />
<path
    fill-rule="evenodd"
    clip-rule="evenodd"
    d="M147.72 132.888L154.864 132.907C155.184 130.235 154.956 91.1629 154.772 90.7069L147.831 90.6639C147.442 91.5492 147.667 117.566 147.667 122.233C147.667 125.269 147.384 130.063 147.72 132.888V132.888Z"
    fill="#001432"
  />
<path
    fill-rule="evenodd"
    clip-rule="evenodd"
    d="M187.793 134.406C189.832 134.494 192.035 134.456 194.084 134.481C195.62 134.501 199.182 134.649 200.509 134.384L200.489 116.441L187.78 116.302L187.793 134.406Z"
    fill="#001432"
  />
<path
    fill-rule="evenodd"
    clip-rule="evenodd"
    d="M225.122 149.413C224.738 149.493 223.648 150.205 222.949 150.448C222.075 150.751 221.257 150.966 220.314 151.146C216.11 151.947 209.427 151.936 205.357 150.534C204.375 150.196 203.718 149.743 202.978 149.362C202.813 154.405 202.342 155.432 205.582 156.453C210.919 158.135 224.911 158.122 225.117 154.202C225.198 152.676 225.09 150.971 225.122 149.413Z"
    fill="#F9C626"
  />
<path
    fill-rule="evenodd"
    clip-rule="evenodd"
    d="M18.0738 110.721C18.6476 110.432 24.7611 105.814 25.223 105.247L25.2145 90.7191L18.1256 90.6631L18.0738 110.721V110.721Z"
    fill="#001432"
  />
<path
    fill-rule="evenodd"
    clip-rule="evenodd"
    d="M187.792 106.947L194.066 106.93L194.07 88.7975L187.831 88.7979L187.792 106.947Z"
    fill="#001432"
  />
<path
    fill-rule="evenodd"
    clip-rule="evenodd"
    d="M51.6765 108.511C52.0044 107.995 54.3132 105.892 54.8586 105.339C55.9768 104.206 56.9267 103.271 58.0522 102.047C59.6812 100.275 59.2628 101.143 59.2619 96.7537C59.2616 95.3584 59.428 91.2462 59.1719 90.1726L51.7118 90.1719L51.6765 108.511V108.511Z"
    fill="#001432"
  />
<path
    fill-rule="evenodd"
    clip-rule="evenodd"
    d="M224.518 148.87C224.287 147.859 224.016 147.76 223.849 146.223C220.181 144.771 216.764 144.481 212.443 144.616C199.454 145.024 199.934 150.779 213.443 150.911C215.533 150.931 217.515 150.838 219.526 150.516C220.447 150.368 221.384 150.177 222.235 149.903C223.275 149.569 223.681 149.271 224.518 148.87V148.87Z"
    fill="#EBEDED"
  />
<path
    fill-rule="evenodd"
    clip-rule="evenodd"
    d="M233.519 151.388C233.815 154.648 233.299 156.013 236.507 156.628C239.122 157.13 241.82 156.906 244.443 156.574C246.589 156.303 252.954 155.295 252.725 152.468C252.623 151.21 252.417 149.86 252.255 148.582C251.504 148.954 251.716 149.389 248.62 150.477C247.145 150.996 245.642 151.294 244.057 151.541C237.76 152.52 235.38 151.151 233.519 151.388V151.388Z"
    fill="#F9C626"
  />
<path
    fill-rule="evenodd"
    clip-rule="evenodd"
    d="M243.111 143.053C239.822 144.477 238.685 144.844 234.456 144.84C232.872 144.839 231.28 144.723 229.767 144.456C227.878 144.122 227.207 143.73 225.831 143.037C225.73 147.241 225.363 147.694 227.829 148.558C231.684 149.908 242.712 149.866 243.124 146.892C243.231 146.118 243.154 143.911 243.111 143.053Z"
    fill="#F9C626"
  />
<path
    fill-rule="evenodd"
    clip-rule="evenodd"
    d="M231.173 139.491C220.817 140.66 226.934 145.368 237.765 144.063C239.29 143.879 240.874 143.585 242.126 142.942C246.02 140.942 238.589 138.653 231.173 139.491Z"
    fill="#EBEDED"
  />
<path
    fill-rule="evenodd"
    clip-rule="evenodd"
    d="M223.701 64.78V65.2796C224.994 65.3879 227.013 66.3633 227.882 67.2331C228.715 68.066 229.702 70.0354 229.989 71.2747H230.32C230.456 70.6858 230.907 69.6224 231.121 69.0836C231.752 67.497 232.581 66.621 234.118 65.9385C234.695 65.6822 235.708 65.1295 236.442 65.1131V64.6135C235.195 64.5091 233.109 63.5146 232.26 62.6604C231.259 61.6536 230.489 60.0635 230.154 58.6184C229.396 58.8221 229.782 58.8905 229.069 60.6899C228.413 62.3439 227.677 63.2151 226.025 63.9549C225.549 64.1683 224.278 64.7318 223.701 64.78V64.78Z"
    fill="#EBEDED"
  />
<path
    fill-rule="evenodd"
    clip-rule="evenodd"
    d="M238.397 151.212C241.693 151.421 246.757 150.703 249.806 149.338C250.916 148.841 252.08 148.315 252.061 147.046C251.056 145.24 247.313 145.362 245.059 145.416C244.796 147.909 245.038 148.563 243.219 149.702C241.713 150.646 239.594 150.563 238.397 151.212V151.212Z"
    fill="#EBEDED"
  />
<path
    fill-rule="evenodd"
    clip-rule="evenodd"
    d="M62.2127 64.78V65.1131C62.7525 65.1583 63.4689 65.4314 63.8946 65.5853C64.6262 65.8495 64.6588 65.9733 65.1554 66.4812C66.3594 67.713 66.1076 68.7322 66.8456 69.2763C67.0274 67.0778 68.9574 65.13 71.1475 64.9466V64.6135C69.6382 64.4871 67.9719 63.5881 67.291 62.0004C67.042 61.4198 66.9578 60.777 66.5147 60.4503C65.9997 61.5305 65.9144 62.4541 65.0746 63.3307C64.341 64.0965 63.2596 64.5346 62.2127 64.78Z"
    fill="#EBEDED"
  />
<path
    fill-rule="evenodd"
    clip-rule="evenodd"
    d="M218.407 52.6234C218.697 53.023 219.172 53.0977 219.71 53.3101C221.805 54.138 221.534 55.1012 222.01 55.9907C222.264 56.4649 222.009 56.31 222.543 56.4535C222.764 55.5007 223.124 54.6023 223.734 53.9884C224.344 53.3746 225.236 53.0119 226.183 52.7899V52.4568C221.793 51.4274 223.388 49.1536 222.047 48.7932C221.798 51.7952 219.417 52.1355 218.407 52.6234V52.6234Z"
    fill="#EBEDED"
  />
</svg>
