<svg width="738" height="405" viewBox="0 0 738 405" fill="none" xmlns="http://www.w3.org/2000/svg">
<path fill-rule="evenodd" clip-rule="evenodd" d="M183.685 177.905L12.6115 177.89C5.08059 177.883 0 181.996 0 189.792V353.76C0 362.309 7.82462 366.187 13.5341 370.882C17.3921 374.055 20.7192 377.125 26.0663 377.125H98.9702C102.19 377.125 104.775 376.379 106.709 375.076C108.299 376.148 111.416 377.125 114.04 377.125C119.846 377.125 140.546 378.067 144.982 375.884C146.498 375.138 147.888 374.083 148.659 372.616C152.289 375.063 153.313 377.125 159.656 377.125C166.009 377.125 183.548 377.946 188.995 376.299C191.327 375.593 191.333 375.844 194.092 376.487C195.576 376.833 196.251 377.125 197.94 377.125C207.816 377.125 262.828 377.787 267.972 376.694C268.712 376.537 268.896 376.523 269.637 376.299C273.886 375.013 273.203 377.125 278.176 377.125H337.232C343.159 377.125 339.827 374.91 346.75 376.561C348.162 376.898 348.65 377.125 350.265 377.125H419.911C422.136 377.125 425.605 376.255 427.023 375.265C429.07 373.836 430.185 372.306 431.315 370.157C436.114 373.391 436.257 377.125 443.94 377.125H482.632L483.606 385.574C484.52 389.25 485.612 390.884 487.804 393.646C487.857 393.713 487.93 393.809 487.985 393.874L488.771 394.722C488.968 394.907 489.624 395.433 489.896 395.639C491.491 396.849 492.908 397.92 494.679 399.024C499.5 402.029 514.897 405 520.917 405H521.581H523.755C535.472 404.996 537.171 404.865 550.548 402.029C558.566 400.329 559.069 398.684 564.904 394.752C569.024 397.529 569.107 399.019 575.083 400.494C590.494 404.297 608.627 402.412 622.981 396.636C631.063 393.383 638.215 386.429 638.215 377.125C643.281 377.125 649.053 377.821 653.95 376.565C657.836 375.568 656.059 375.199 660.528 376.394C661.774 376.727 662.924 377.125 664.689 377.125H705.01C712.2 377.125 716.821 372.475 716.821 365.238V243.492C722.555 243.492 730.568 244.49 734.655 240.126C736.459 238.2 738 234.793 738 231.194V202.5C738 193.56 730.324 189.476 725.264 184.574C721.726 181.147 719.165 177.905 713.156 177.905H533.136C533.136 161.417 531.701 148.082 528.168 133.715L524.67 121.248C522.866 114.604 519.647 108.39 517.304 102.018C516.142 98.859 511.869 91.2296 509.94 88.1127C509.309 87.0933 508.649 85.8649 508.027 84.7095C507.176 83.13 506.84 82.8911 505.973 81.4476C503.36 77.0956 500.256 72.9512 497.237 68.9241L491.002 61.2625C487.545 57.1239 480.894 49.8037 476.991 46.6698L472.927 42.9714C467.212 37.7294 459.909 31.989 453.181 28.0022C449.86 26.0341 446.732 23.6813 443.235 22.026L425.342 13.3898C415.727 8.82817 403.266 5.36574 392.856 3.45394C374.616 0.104126 370.551 0 351.894 0C338.086 0 325.751 2.93308 314.258 5.57167C304.35 7.84652 288.113 13.6828 279.068 18.9348L274.028 21.6504C267.614 24.936 261.276 28.9519 255.479 33.316L243.484 42.9692C242.448 43.8799 241.82 44.6379 240.815 45.6118L232.458 53.5969C230.521 55.5432 229.284 57.218 227.364 59.1283C220.469 65.989 209.304 81.7669 204.918 91.0561C203.77 93.4874 202.293 95.4821 201.259 98.0311C200.561 99.7517 200.078 99.9546 199.457 101.547L190.553 125.379C188.209 132.332 186.686 139.938 185.426 147.273C184.842 150.666 184.436 153.316 183.907 156.812C183.588 158.92 183.239 176.969 183.685 177.905Z" fill="white"/>
<path fill-rule="evenodd" clip-rule="evenodd" d="M194.621 188.911L10.9968 188.979L11.0028 353.76C11.0028 355.428 16.9926 359.457 18.2137 360.431C20.0813 361.921 24.2168 366.052 26.4737 366.052L100.545 366.014L100.276 354.574C102.597 354.79 102.801 355.73 104.181 357.122L110.504 363.468C111.711 364.677 112.32 366.052 114.447 366.052L140.124 366.036V354.617C148.63 354.342 146.33 354.24 155.637 363.546C156.964 364.872 157.333 366.052 159.656 366.052L185.245 366.002L185.259 354.667C188.437 356.413 194.966 366.052 198.348 366.052C219.356 366.052 245.639 366.502 266.004 366.011L265.999 354.925C268.649 356.529 273.623 362.889 276.463 365.31C278.151 366.748 283.097 366.052 285.914 366.052C302.83 366.052 321.588 366.516 338.017 366.018L338.03 354.994C342.378 357.959 347.498 366.052 350.672 366.052L421.049 365.994L421.048 354.574C434.477 354.574 430.089 353.833 435.623 358.444C443.7 365.173 439.671 366.115 446.789 366.056C461.326 365.936 480.412 365.563 494.041 366.097C493.488 369.039 493.433 377.144 493.717 380.354C495.273 397.907 539.944 394.979 551.454 390.247C561.011 386.318 560.011 381.554 560.011 370.4L569.583 372.35C571.052 381.534 569.219 386.829 577.974 389.804C588.587 393.411 611.041 390.617 621.168 384.968C629.135 380.524 627.037 375.949 626.17 366.052H651.312L651.86 354.783C653.491 354.893 656.847 359.033 658.128 360.362C660.399 362.718 662.894 366.052 665.096 366.052H705.799L705.932 232.156L727.004 232.16L726.997 202.5C726.997 200.484 714.193 189.183 713.139 189.006L549.427 188.979C540.618 188.979 530.433 189.452 521.793 188.911C524.092 159.793 518.564 129.635 505.573 103.583C501.432 95.2784 496.002 85.6925 490.471 78.6087C480.351 65.6468 474.351 58.7915 461.074 47.5193C452.546 40.2792 440.622 33.1479 430.688 28.1008C416.497 20.8905 392.837 13.0375 376.725 12.0512C352.117 10.5447 338.791 10.0508 313.289 17.2799C302.107 20.4497 293.199 24.4992 283.597 29.2438C274.134 33.9198 272.659 35.629 264.453 40.6997C258.386 44.4488 252.192 50.5773 247.217 54.9362C245.164 56.7358 243.863 58.0752 242.017 59.9393C217.777 84.4178 202.072 114.837 196.24 149.552C194.091 162.348 194.621 175.134 194.621 188.911Z" fill="#001432"/>
<path fill-rule="evenodd" clip-rule="evenodd" d="M430.969 353.685C437.834 353.698 499.747 354.336 503.591 353.135C512.007 350.506 516.444 350.499 525.44 350.012C525.44 335.548 525.44 321.084 525.44 306.619C525.44 292.247 525.081 277.411 525.602 263.304L509.806 263.354L509.652 195.534L430.806 195.598C430.035 207.778 430.738 222.43 430.738 234.884C430.738 243.759 430.202 350.204 430.969 353.685Z" fill="#0BFFEA"/>
<path fill-rule="evenodd" clip-rule="evenodd" d="M336.959 353.745L408.144 353.859L408.149 196.069L336.979 195.946L336.959 353.745Z" fill="white"/>
<path fill-rule="evenodd" clip-rule="evenodd" d="M100.749 353.868L127.182 353.879C127.687 338.446 127.205 322.14 127.205 306.619C127.205 293.988 125.017 297.849 133.788 289.197C136.302 286.718 143.523 278.77 145.802 277.433L145.879 353.817L172.332 353.875L172.331 196.087L100.766 195.946L100.749 353.868Z" fill="white"/>
<path fill-rule="evenodd" clip-rule="evenodd" d="M363.371 115.597C365.2 117.654 405.705 146.556 409.952 149.797C411.494 150.973 412.696 151.892 414.258 152.898C416.22 154.161 417.489 153.353 419.737 152.697C423.747 151.527 456.898 141.095 458.835 140.051C460.736 139.028 465.96 120.43 466.615 118.351L477.223 84.7161C478.806 79.4012 479.447 81.3511 473.848 74.8328C465.8 65.4636 456.836 57.5034 447.011 50.1793C442.299 46.6669 416.745 31.7232 413.601 32.5471C411.937 32.9832 406.376 37.1307 404.36 38.4466L366.121 66.3967C364.025 67.9353 363.306 67.3661 363.352 70.8897L363.371 115.597Z" fill="white"/>
<path fill-rule="evenodd" clip-rule="evenodd" d="M353.045 115.967L353.047 71.7272C353.1 66.9801 354.255 69.4167 346.609 63.506C344.99 62.2549 343.821 61.687 342.303 60.4814C340.849 59.3263 339.625 58.3583 338.168 57.2699C336.691 56.1665 335.499 55.4987 333.884 54.2013L308.057 35.5131C302.992 31.9328 303.87 31.4573 298.141 34.0293C275.737 44.0886 259.162 56.1205 242.832 74.693C237.697 80.533 237.558 78.8551 239.247 83.8441L250.086 117.221C258.784 143.368 254.469 138.466 262.472 141.653C266.804 143.377 274.592 145.536 279.428 147.144C282.291 148.096 300.201 154.078 301.878 153.393L331.572 131.624C333.03 130.459 334.351 129.507 335.821 128.522C340.671 125.271 347.537 119.522 353.045 115.967Z" fill="white"/>
<path fill-rule="evenodd" clip-rule="evenodd" d="M184.637 353.693L252.943 353.804L252.993 195.943L226.496 195.949L226.507 329.511L211.199 329.519L211.162 195.943L184.664 195.957L184.637 353.693Z" fill="white"/>
<path fill-rule="evenodd" clip-rule="evenodd" d="M18.071 353.562C22.356 354.384 39.0136 353.927 44.4939 353.911L44.5023 301.7L88.8932 268.262C88.8003 261.561 89.3557 200.264 88.6362 196.094L18.0769 195.946L18.071 353.562Z" fill="white"/>
<path fill-rule="evenodd" clip-rule="evenodd" d="M532.992 350.12C540.147 350.354 544.593 351.673 551.084 353.352C551.43 348.172 550.386 343.632 558.6 340.847C569.192 337.256 584.414 337.456 595.059 340.62C605.116 343.609 602.295 349.59 603.326 352.757L612.321 353.064L612.306 331.017L564.967 330.875L564.935 286.209L596.582 286.154L596.565 263.578C595.132 263.182 596.811 263.049 593.014 263.097L580.788 263.107C575.538 263.139 570.21 263.567 564.947 263.207L564.938 218.641L612.298 218.609L612.332 195.941C611.878 195.729 612.331 195.804 611.3 195.651L533.044 195.601L532.992 350.12Z" fill="#0BFFEA"/>
<path fill-rule="evenodd" clip-rule="evenodd" d="M619.83 218.473L651.308 218.509L651.401 353.498L683.2 353.613L683.239 218.479L714.815 218.507L714.872 195.521L619.909 195.614L619.83 218.473Z" fill="#0BFFEA"/>
<path fill-rule="evenodd" clip-rule="evenodd" d="M265.087 353.852L325.042 353.851L325.064 327.178C320.464 327.178 294.031 327.554 291.755 326.958L291.674 195.943L265.135 195.945L265.087 353.852Z" fill="white"/>
<path fill-rule="evenodd" clip-rule="evenodd" d="M411.51 188.82L511.115 188.952L511.127 186.009L476.94 161.064C475.604 159.999 474.818 159.782 473.511 158.8C471.249 157.099 469.466 155.914 467.35 154.362C459.655 148.719 462.589 150.723 443.763 156.361C441.757 156.962 420.352 163.761 419.6 164.477C418.94 165.107 411.883 186.713 411.51 188.82Z" fill="white"/>
<path fill-rule="evenodd" clip-rule="evenodd" d="M205.299 188.945L305.121 188.935C303.495 183.275 301.578 178.029 299.828 172.553C296.734 162.873 298.492 164.625 288.772 161.483C283.35 159.731 277.548 157.654 272.179 156.039C269.242 155.155 257.084 150.836 255.357 150.856C253.429 150.877 233.394 165.948 229.313 168.899L216.555 178.192C214.305 179.92 212.314 181.116 210.174 182.842C204.879 187.112 205.296 185.051 205.299 188.945Z" fill="white"/>
<path fill-rule="evenodd" clip-rule="evenodd" d="M363.618 327.11L381.203 327.155C381.991 320.579 381.43 224.401 380.978 223.279L363.891 223.173C362.934 225.352 363.488 289.393 363.488 300.88C363.488 308.355 362.791 320.156 363.618 327.11Z" fill="#001432"/>
<path fill-rule="evenodd" clip-rule="evenodd" d="M462.261 330.845C467.279 331.062 472.701 330.968 477.745 331.031C481.527 331.079 490.294 331.443 493.56 330.792L493.511 286.625L462.229 286.281L462.261 330.845Z" fill="#001432"/>
<path fill-rule="evenodd" clip-rule="evenodd" d="M554.147 367.785C553.2 367.984 550.517 369.736 548.797 370.333C546.646 371.08 544.632 371.609 542.311 372.052C531.964 374.023 515.513 373.997 505.495 370.546C503.077 369.713 501.46 368.598 499.639 367.659C499.232 380.074 498.074 382.602 506.048 385.116C519.186 389.257 553.626 389.224 554.134 379.574C554.332 375.817 554.068 371.622 554.147 367.785Z" fill="#0BFFEA"/>
<path fill-rule="evenodd" clip-rule="evenodd" d="M44.4895 272.544C45.9019 271.833 60.9503 260.464 62.0873 259.069L62.0664 223.308L44.6169 223.171L44.4895 272.544Z" fill="#001432"/>
<path fill-rule="evenodd" clip-rule="evenodd" d="M462.256 263.254L477.702 263.213L477.71 218.579L462.352 218.58L462.256 263.254Z" fill="#001432"/>
<path fill-rule="evenodd" clip-rule="evenodd" d="M127.204 267.104C128.011 265.833 133.694 260.656 135.037 259.296C137.789 256.507 140.127 254.205 142.898 251.192C146.908 246.831 145.878 248.966 145.875 238.163C145.875 234.728 146.284 224.606 145.654 221.963L127.29 221.962L127.204 267.104Z" fill="#001432"/>
<path fill-rule="evenodd" clip-rule="evenodd" d="M552.659 366.449C552.091 363.961 551.423 363.717 551.013 359.934C541.985 356.359 533.572 355.645 522.938 355.979C490.965 356.981 492.146 371.149 525.397 371.472C530.543 371.522 535.421 371.295 540.371 370.501C542.639 370.137 544.946 369.668 547.041 368.993C549.599 368.169 550.598 367.437 552.659 366.449Z" fill="white"/>
<path fill-rule="evenodd" clip-rule="evenodd" d="M574.815 372.647C575.545 380.671 574.274 384.033 582.171 385.547C588.609 386.781 595.249 386.231 601.705 385.414C606.988 384.745 622.656 382.266 622.092 375.306C621.841 372.208 621.333 368.887 620.935 365.74C619.086 366.656 619.608 367.726 611.987 370.406C608.357 371.682 604.657 372.417 600.756 373.024C585.255 375.434 579.397 372.065 574.815 372.647Z" fill="#0BFFEA"/>
<path fill-rule="evenodd" clip-rule="evenodd" d="M598.426 352.129C590.331 355.635 587.533 356.538 577.123 356.53C573.223 356.527 569.304 356.242 565.581 355.583C560.932 354.761 559.278 353.798 555.891 352.092C555.642 362.439 554.739 363.554 560.811 365.681C570.3 369.005 597.445 368.902 598.459 361.58C598.723 359.674 598.533 354.242 598.426 352.129Z" fill="#0BFFEA"/>
<path fill-rule="evenodd" clip-rule="evenodd" d="M569.041 343.362C543.55 346.241 558.607 357.828 585.268 354.616C589.022 354.164 592.92 353.439 596.002 351.856C605.588 346.935 587.297 341.3 569.041 343.362Z" fill="white"/>
<path fill-rule="evenodd" clip-rule="evenodd" d="M550.649 159.458V160.688C553.832 160.955 558.8 163.356 560.941 165.497C562.992 167.547 565.42 172.395 566.126 175.445H566.94C567.276 173.996 568.386 171.378 568.913 170.052C570.465 166.146 572.508 163.99 576.29 162.31C577.711 161.679 580.205 160.319 582.01 160.278V159.049C578.941 158.792 573.808 156.344 571.717 154.241C569.253 151.763 567.357 147.849 566.533 144.292C564.668 144.793 565.617 144.961 563.861 149.391C562.247 153.462 560.436 155.606 556.37 157.428C555.197 157.953 552.068 159.34 550.649 159.458Z" fill="white"/>
<path fill-rule="evenodd" clip-rule="evenodd" d="M586.824 372.213C594.936 372.728 607.401 370.962 614.907 367.602C617.641 366.378 620.506 365.082 620.457 361.959C617.984 357.514 608.77 357.813 603.221 357.948C602.576 364.084 603.169 365.693 598.692 368.498C594.985 370.821 589.771 370.617 586.824 372.213Z" fill="white"/>
<path fill-rule="evenodd" clip-rule="evenodd" d="M153.139 159.458V160.278C154.468 160.39 156.231 161.062 157.279 161.441C159.08 162.091 159.16 162.396 160.382 163.646C163.346 166.678 162.726 169.187 164.543 170.526C164.99 165.115 169.741 160.32 175.132 159.868V159.049C171.417 158.737 167.315 156.524 165.639 152.616C165.026 151.187 164.819 149.605 163.728 148.801C162.461 151.46 162.251 153.733 160.184 155.891C158.378 157.776 155.716 158.854 153.139 159.458Z" fill="white"/>
<path fill-rule="evenodd" clip-rule="evenodd" d="M537.616 129.534C538.332 130.518 539.501 130.702 540.824 131.225C545.983 133.263 545.313 135.634 546.487 137.823C547.112 138.991 546.484 138.609 547.798 138.963C548.341 136.617 549.228 134.406 550.73 132.895C552.231 131.384 554.428 130.491 556.759 129.944V129.124C545.951 126.59 549.878 120.993 546.577 120.106C545.966 127.496 540.103 128.334 537.616 129.534Z" fill="white"/>
</svg>
